<?xml version="1.0" ?><svg viewBox="0 0 64 64" xmlns="http://www.w3.org/2000/svg"><defs><style>.cls-1{fill:#6cc5ef;}.cls-2{fill:#9af39a;}.cls-3{fill:#3db3ea;}.cls-4{fill:#16244d;}</style></defs><g data-name="Earth" id="Earth-3"><path class="cls-1" d="M54.68,32A22.68,22.68,0,1,1,32,9.32,22.67,22.67,0,0,1,54.68,32Z" id="path1351-1"/><path class="cls-2" d="M14.43,17.66A22.7,22.7,0,0,0,9.32,32a22.42,22.42,0,0,0,.22,3.17H22.81a3.23,3.23,0,0,0,0-6.45h-4a2.31,2.31,0,1,1,0-4.61h8a3.23,3.23,0,1,0,0-6.45Z" id="rect1353-2"/><path class="cls-2" d="M39,17.66h3.63a3.23,3.23,0,0,1,0,6.45H39a3.23,3.23,0,1,1,0-6.45Z" id="rect1368-7"/><path class="cls-2" d="M32.26,35a1.91,1.91,0,1,0,0,3.81h0a1.9,1.9,0,0,1,0,3.8H28.79a1.91,1.91,0,0,0,0,3.81h13.3a1.91,1.91,0,1,0,0-3.81,1.91,1.91,0,0,1,0-3.81h3.47a1.91,1.91,0,0,0,0-3.81Z" id="rect1252-0"/><path class="cls-2" d="M22.49,44.51a1.91,1.91,0,1,1-1.9-1.9A1.91,1.91,0,0,1,22.49,44.51Z" id="path1267-9"/><path class="cls-2" d="M48.33,29.4a1.91,1.91,0,1,1-1.9-1.9A1.9,1.9,0,0,1,48.33,29.4Z" id="path1267-1-3"/><path class="cls-3" d="M32,9.32c-.74,0-1.47,0-2.2.11a22.68,22.68,0,0,1,0,45.14c.73.07,1.46.11,2.2.11A22.68,22.68,0,0,0,32,9.32Z" id="circle3065"/><path class="cls-4" d="M58.17,42a1,1,0,0,0,.33,0,1,1,0,0,0,.94-.67c.1-.29.2-.58.28-.87a1,1,0,0,0-.66-1.25,1,1,0,0,0-1.25.66c-.08.27-.17.54-.26.81A1,1,0,0,0,58.17,42Z"/><path class="cls-4" d="M31.56,5h.88a1,1,0,0,0,0-2h-.9a1,1,0,0,0,0,2Z"/><path class="cls-4" d="M22.93,6.5a.89.89,0,0,0,.32,0l.81-.26a1,1,0,0,0-.59-1.92l-.87.29a1,1,0,0,0,.33,1.94Z"/><path class="cls-4" d="M57.81,24.06a1,1,0,0,0,1,.71.93.93,0,0,0,.29-.05,1,1,0,0,0,.66-1.25c-.08-.29-.18-.58-.28-.87a1,1,0,0,0-1.89.65C57.64,23.52,57.73,23.79,57.81,24.06Z"/><path class="cls-4" d="M8.81,49.41a1,1,0,0,0,.8.4,1,1,0,0,0,.6-.2,1,1,0,0,0,.2-1.4c-.17-.22-.34-.45-.5-.69a1,1,0,1,0-1.64,1.16Z"/><path class="cls-4" d="M60,30.56a1,1,0,0,0-1,1v.86a1,1,0,0,0,1,1h0a1,1,0,0,0,1-1v-.92A1,1,0,0,0,60,30.56Z"/><path class="cls-4" d="M39.94,6.19l.81.26a.89.89,0,0,0,.32,0,1,1,0,0,0,.33-1.94c-.29-.1-.58-.2-.87-.28a1,1,0,0,0-1.25.66A1,1,0,0,0,39.94,6.19Z"/><path class="cls-4" d="M48.21,10.41a1,1,0,0,0,.6.2,1,1,0,0,0,.8-.4,1,1,0,0,0-.2-1.4l-.73-.54a1,1,0,1,0-1.16,1.64C47.76,10.07,48,10.24,48.21,10.41Z"/><path class="cls-4" d="M15.19,10.61a1,1,0,0,0,.6-.2l.68-.5a1,1,0,1,0-1.15-1.64l-.73.54a1,1,0,0,0-.2,1.4A1,1,0,0,0,15.19,10.61Z"/><path class="cls-4" d="M54.09,16.48a1,1,0,0,0,.82.42,1,1,0,0,0,.58-.18,1,1,0,0,0,.24-1.4l-.54-.73a1,1,0,0,0-1.6,1.2C53.76,16,53.93,16.24,54.09,16.48Z"/><path class="cls-4" d="M6.19,39.94a1,1,0,0,0-1.92.59c.09.29.19.58.29.87a1,1,0,0,0,.94.67,1.26,1.26,0,0,0,.33,0,1,1,0,0,0,.62-1.27C6.36,40.48,6.27,40.21,6.19,39.94Z"/><path class="cls-4" d="M32,61h.45a1,1,0,0,0,0-2h-.87a1,1,0,1,0,0,2Z"/><path class="cls-4" d="M24.06,57.81l-.81-.26a1,1,0,0,0-.65,1.89c.29.1.58.2.87.28a1,1,0,0,0,.29.05,1,1,0,0,0,.3-2Z"/><path class="cls-4" d="M55.19,49.41l.54-.73a1,1,0,1,0-1.64-1.16c-.16.24-.33.46-.5.69a1,1,0,0,0,.2,1.4,1,1,0,0,0,.6.2A1,1,0,0,0,55.19,49.41Z"/><path class="cls-4" d="M15.32,55.73a1,1,0,0,0,.58.18,1,1,0,0,0,.82-.42,1,1,0,0,0-.25-1.4l-.68-.5a1,1,0,1,0-1.2,1.6Z"/><path class="cls-4" d="M40.23,59.77a1,1,0,0,0,.3-.05c.29-.08.58-.18.87-.28a1,1,0,1,0-.65-1.89l-.81.26a1,1,0,0,0,.29,2Z"/><path class="cls-4" d="M4,33.44H4a1,1,0,0,0,1-1v-.84a1,1,0,0,0-1-1,1,1,0,0,0-1,1v.92A1,1,0,0,0,4,33.44Z"/><path class="cls-4" d="M48.68,55.73l.73-.54a1,1,0,0,0-1.2-1.6c-.23.17-.45.34-.69.5a1,1,0,0,0-.24,1.4,1,1,0,0,0,.82.42A1,1,0,0,0,48.68,55.73Z"/><path class="cls-4" d="M9.09,16.9a1,1,0,0,0,.82-.42c.16-.24.33-.47.5-.69a1,1,0,0,0-1.6-1.2l-.54.73a1,1,0,0,0,.24,1.4A1,1,0,0,0,9.09,16.9Z"/><path class="cls-4" d="M4.94,24.72a.93.93,0,0,0,.29.05,1,1,0,0,0,1-.71c.08-.27.17-.54.26-.81a1,1,0,0,0-1.89-.65c-.1.29-.2.58-.29.87A1,1,0,0,0,4.94,24.72Z"/><path class="cls-4" d="M8.32,32A23.68,23.68,0,1,0,32,8.32,23.7,23.7,0,0,0,8.32,32Zm6.61-13.34H26.72a2.23,2.23,0,1,1,0,4.45H18.77a3.31,3.31,0,1,0,0,6.61h4a2.23,2.23,0,0,1,0,4.45H10.43c-.07-.71-.11-1.44-.11-2.17A21.58,21.58,0,0,1,14.93,18.66ZM53.68,32a21.68,21.68,0,0,1-42.95,4.17H22.81a4.23,4.23,0,0,0,0-8.45h-4a1.31,1.31,0,1,1,0-2.61h8a4.23,4.23,0,1,0,0-8.45h-10A21.67,21.67,0,0,1,53.68,32Z"/><path class="cls-4" d="M39,25.11h3.63a4.23,4.23,0,0,0,0-8.45H39a4.23,4.23,0,1,0,0,8.45Zm0-6.45h3.63a2.23,2.23,0,0,1,0,4.45H39a2.23,2.23,0,1,1,0-4.45Z"/><path class="cls-4" d="M29.35,36.89a2.9,2.9,0,0,0,2.76,2.9h.11a.9.9,0,0,1,0,1.8H28.79a2.91,2.91,0,0,0,0,5.81h13.3a2.91,2.91,0,1,0,0-5.81.91.91,0,0,1,0-1.81h3.47a2.91,2.91,0,0,0,0-5.81H32.26A2.91,2.91,0,0,0,29.35,36.89Zm2.91-.9h13.3a.91.91,0,0,1,0,1.81H42.09a2.91,2.91,0,0,0,0,5.81.91.91,0,1,1,0,1.81H28.79a.91.91,0,0,1,0-1.81H32.4a2.9,2.9,0,0,0,0-5.79h-.14a.91.91,0,1,1,0-1.81Z"/><path class="cls-4" d="M20.58,41.61a2.91,2.91,0,1,0,2.91,2.9A2.9,2.9,0,0,0,20.58,41.61Zm0,3.81a.91.91,0,1,1,.91-.91A.91.91,0,0,1,20.58,45.42Z"/><path class="cls-4" d="M43.52,29.4a2.91,2.91,0,1,0,2.91-2.9A2.91,2.91,0,0,0,43.52,29.4Zm3.81,0a.91.91,0,1,1-.9-.9A.91.91,0,0,1,47.33,29.4Z"/></g></svg>